<svg width="20" height="20" viewBox="0 0 20 20" fill="none" xmlns="http://www.w3.org/2000/svg">
<path d="M13.7886 10.8334C14.4136 10.8334 14.9636 10.4917 15.2469 9.97508L18.2302 4.56675C18.5386 4.01675 18.1386 3.33341 17.5052 3.33341H5.17191L4.38857 1.66675H1.66357V3.33341H3.33024L6.33024 9.65842L5.20524 11.6917C4.59691 12.8084 5.39691 14.1667 6.66357 14.1667H16.6636V12.5001H6.66357L7.58024 10.8334H13.7886ZM5.96357 5.00008H16.0886L13.7886 9.16675H7.93857L5.96357 5.00008ZM6.66357 15.0001C5.74691 15.0001 5.00524 15.7501 5.00524 16.6667C5.00524 17.5834 5.74691 18.3334 6.66357 18.3334C7.58024 18.3334 8.33024 17.5834 8.33024 16.6667C8.33024 15.7501 7.58024 15.0001 6.66357 15.0001ZM14.9969 15.0001C14.0802 15.0001 13.3386 15.7501 13.3386 16.6667C13.3386 17.5834 14.0802 18.3334 14.9969 18.3334C15.9136 18.3334 16.6636 17.5834 16.6636 16.6667C16.6636 15.7501 15.9136 15.0001 14.9969 15.0001Z" fill="black"/>
</svg>
