<svg width="22" height="22" viewBox="0 0 22 22" fill="none" xmlns="http://www.w3.org/2000/svg">
<path d="M11 11C12.6569 11 14 9.65685 14 8C14 6.34315 12.6569 5 11 5C9.34315 5 8 6.34315 8 8C8 9.65685 9.34315 11 11 11Z" stroke="#16423C" stroke-width="1.5" stroke-linecap="round" stroke-linejoin="round"/>
<path d="M11 20.5C16.2467 20.5 20.5 16.2467 20.5 11C20.5 5.75329 16.2467 1.5 11 1.5C5.75329 1.5 1.5 5.75329 1.5 11C1.5 16.2467 5.75329 20.5 11 20.5Z" stroke="#16423C" stroke-width="1.5" stroke-linecap="round" stroke-linejoin="round"/>
<path d="M17.15 18.27C16.22 15.78 13.82 14 11 14C8.17998 14 5.77998 15.77 4.84998 18.27" stroke="#16423C" stroke-width="1.5" stroke-linecap="round" stroke-linejoin="round"/>
</svg>
