<svg width="293" height="280" viewBox="0 0 293 280" fill="none" xmlns="http://www.w3.org/2000/svg">
<path d="M146.509 140.182C147.44 140.182 148.194 139.611 148.194 138.908C148.194 138.204 147.44 137.634 146.509 137.634C145.578 137.634 144.823 138.204 144.823 138.908C144.823 139.611 145.578 140.182 146.509 140.182Z" fill="#CFCFCF"/>
<path d="M97.5405 44.2661V49.8562" stroke="#BABABA" stroke-linecap="round" stroke-linejoin="round"/>
<path d="M93.8252 47.061H101.238" stroke="#BABABA" stroke-linecap="round" stroke-linejoin="round"/>
<path d="M181.734 79.5228C167.337 79.5228 152.683 79.0808 138.975 76.1947C125.525 73.3736 113.175 67.9005 102.167 61.5694C94.9603 57.4483 88.4072 54.1592 79.0505 54.6532C69.8968 55.0276 61.1433 57.6112 54.0762 62.0244C42.1739 69.9026 43.9627 84.5019 48.7271 94.7201C55.8822 110.151 77.6573 120.903 96.1643 127.858C117.544 135.931 141.039 140.624 164.585 143.315C185.225 145.694 211.748 147.41 229.635 137.231C246.061 127.858 250.568 106.485 246.543 92.055C245.566 87.7921 242.563 83.9456 238.098 81.2388C226.557 74.8557 209.34 79.1198 196.371 79.3278C191.555 79.4058 186.653 79.4968 181.734 79.5228Z" fill="#F2F2F2"/>
<path d="M158.445 36.6477C159.376 36.6477 160.131 36.0773 160.131 35.3736C160.131 34.67 159.376 34.0996 158.445 34.0996C157.514 34.0996 156.76 34.67 156.76 35.3736C156.76 36.0773 157.514 36.6477 158.445 36.6477Z" fill="#CFCFCF"/>
<path d="M70.8633 135.853V141.443" stroke="#BABABA" stroke-linecap="round" stroke-linejoin="round"/>
<path d="M67.1655 138.648H74.5615" stroke="#BABABA" stroke-linecap="round" stroke-linejoin="round"/>
<path d="M147.196 168.614C182.068 168.614 210.337 167.281 210.337 165.637C210.337 163.993 182.068 162.66 147.196 162.66C112.325 162.66 84.0557 163.993 84.0557 165.637C84.0557 167.281 112.325 168.614 147.196 168.614Z" fill="#F2F2F2"/>
<path d="M197.953 133.747H88.8891C88.1592 133.747 87.4381 133.626 86.7757 133.395C86.1133 133.163 85.5255 132.825 85.0528 132.405C84.58 131.985 84.2338 131.492 84.0379 130.96C83.842 130.429 83.8012 129.872 83.9183 129.327L97.8674 65.3916C98.0559 64.5018 98.6584 63.692 99.5665 63.1081C100.475 62.5242 101.629 62.2045 102.821 62.2066H211.885C212.615 62.2066 213.335 62.3267 213.997 62.5586C214.659 62.7904 215.246 63.1284 215.717 63.5491C216.189 63.9697 216.533 64.4629 216.727 64.9944C216.921 65.5259 216.959 66.0829 216.839 66.6266L202.959 130.562C202.766 131.457 202.155 132.271 201.236 132.855C200.318 133.439 199.154 133.756 197.953 133.747Z" fill="#D2D2D2"/>
<path d="M199.297 60.5341L134.559 38.687C132.65 38.043 130.413 38.6902 129.561 40.1326L109.043 74.8665C108.191 76.3089 109.047 78.0002 110.955 78.6441L175.694 100.491C177.602 101.135 179.84 100.488 180.692 99.0457L201.209 64.3117C202.061 62.8694 201.205 61.1781 199.297 60.5341Z" fill="white" stroke="#BABABA" stroke-linecap="round" stroke-linejoin="round"/>
<path d="M144.049 67.2635C145.753 65.4563 148.231 64.1499 151.064 63.5658C153.896 62.9817 156.909 63.1557 159.591 64.0585C162.274 64.9612 164.46 66.5371 165.781 68.5191C167.102 70.5011 167.476 72.7673 166.839 74.9337" stroke="#BABABA" stroke-width="0.68" stroke-linecap="round" stroke-linejoin="round"/>
<path d="M175.009 65.3006C175.987 65.3006 176.78 64.7011 176.78 63.9616C176.78 63.2221 175.987 62.6226 175.009 62.6226C174.03 62.6226 173.237 63.2221 173.237 63.9616C173.237 64.7011 174.03 65.3006 175.009 65.3006Z" fill="#BABABA"/>
<path d="M149.347 56.6424C150.325 56.6424 151.118 56.0429 151.118 55.3034C151.118 54.5639 150.325 53.9644 149.347 53.9644C148.368 53.9644 147.575 54.5639 147.575 55.3034C147.575 56.0429 148.368 56.6424 149.347 56.6424Z" fill="#BABABA"/>
<path d="M197.472 133.721H87.8744C86.5408 133.718 85.2634 133.315 84.322 132.601C83.3806 131.887 82.852 130.92 82.852 129.912V71.5016C82.836 70.9949 82.9539 70.4909 83.1989 70.019C83.4439 69.5472 83.8111 69.1171 84.2788 68.7538C84.7466 68.3906 85.3055 68.1016 85.9229 67.9037C86.5403 67.7059 87.2038 67.6031 87.8744 67.6016H127.795C128.722 67.6041 129.629 67.7996 130.418 68.1666C131.207 68.5335 131.847 69.0577 132.267 69.6816L137.96 78.1058C138.379 78.7306 139.019 79.2556 139.808 79.6227C140.597 79.9898 141.506 80.1847 142.432 80.1858H197.472C198.804 80.1858 200.082 80.5858 201.023 81.2977C201.965 82.0096 202.494 82.9751 202.494 83.9819V129.912C202.494 130.92 201.966 131.887 201.024 132.601C200.083 133.315 198.806 133.718 197.472 133.721Z" fill="white" stroke="#BABABA" stroke-linecap="round" stroke-linejoin="round"/>
<path d="M180.599 82.1748C174.267 82.1722 168.077 83.589 162.811 86.2458C157.545 88.9027 153.44 92.6803 151.014 97.1009C148.589 101.521 147.953 106.386 149.186 111.08C150.419 115.774 153.466 120.086 157.942 123.471C162.418 126.856 168.121 129.161 174.331 130.096C180.54 131.031 186.977 130.552 192.827 128.721C198.677 126.891 203.677 123.79 207.195 119.811C210.713 115.832 212.591 111.154 212.591 106.368C212.591 99.9541 209.221 93.8023 203.222 89.2655C197.222 84.7287 189.085 82.1783 180.599 82.1748Z" fill="white" stroke="#BABABA" stroke-linecap="round" stroke-linejoin="round"/>
<path d="M203.372 123.918L211.903 130.367" stroke="#BABABA" stroke-linecap="round" stroke-linejoin="round"/>
<path d="M210.938 127.234L208.288 129.329C207.1 130.269 207.144 131.758 208.387 132.656L231.388 149.275C232.631 150.173 234.601 150.14 235.789 149.2L238.44 147.105C239.628 146.165 239.584 144.676 238.341 143.778L215.34 127.159C214.097 126.261 212.126 126.294 210.938 127.234Z" fill="#D2D2D2"/>
<path d="M227.967 35.3735V40.9767" stroke="#BABABA" stroke-linecap="round" stroke-linejoin="round"/>
<path d="M224.252 38.1816H231.665" stroke="#BABABA" stroke-linecap="round" stroke-linejoin="round"/>
<path d="M129.9 197.243V204.473H129.21C129.103 204.473 129.013 204.456 128.94 204.423C128.87 204.386 128.802 204.326 128.735 204.243L124.96 199.423C124.98 199.643 124.99 199.846 124.99 200.033V204.473H123.805V197.243H124.51C124.567 197.243 124.615 197.246 124.655 197.253C124.698 197.256 124.735 197.266 124.765 197.283C124.798 197.296 124.83 197.318 124.86 197.348C124.89 197.374 124.923 197.411 124.96 197.458L128.75 202.298C128.74 202.181 128.732 202.066 128.725 201.953C128.718 201.839 128.715 201.734 128.715 201.638V197.243H129.9ZM133.429 199.263C133.809 199.263 134.154 199.324 134.464 199.448C134.777 199.571 135.044 199.746 135.264 199.973C135.487 200.199 135.659 200.476 135.779 200.803C135.899 201.129 135.959 201.494 135.959 201.898C135.959 202.304 135.899 202.671 135.779 202.998C135.659 203.324 135.487 203.603 135.264 203.833C135.044 204.063 134.777 204.239 134.464 204.363C134.154 204.486 133.809 204.548 133.429 204.548C133.045 204.548 132.697 204.486 132.384 204.363C132.07 204.239 131.802 204.063 131.579 203.833C131.359 203.603 131.187 203.324 131.064 202.998C130.944 202.671 130.884 202.304 130.884 201.898C130.884 201.494 130.944 201.129 131.064 200.803C131.187 200.476 131.359 200.199 131.579 199.973C131.802 199.746 132.07 199.571 132.384 199.448C132.697 199.324 133.045 199.263 133.429 199.263ZM133.429 203.598C133.855 203.598 134.17 203.454 134.374 203.168C134.58 202.881 134.684 202.461 134.684 201.908C134.684 201.354 134.58 200.933 134.374 200.643C134.17 200.353 133.855 200.208 133.429 200.208C132.995 200.208 132.674 200.354 132.464 200.648C132.257 200.938 132.154 201.358 132.154 201.908C132.154 202.458 132.257 202.878 132.464 203.168C132.674 203.454 132.995 203.598 133.429 203.598ZM141.713 200.683C141.966 200.683 142.186 200.651 142.373 200.588C142.563 200.524 142.718 200.438 142.838 200.328C142.961 200.214 143.053 200.081 143.113 199.928C143.173 199.774 143.203 199.606 143.203 199.423C143.203 199.056 143.081 198.774 142.838 198.578C142.598 198.381 142.229 198.283 141.733 198.283H140.873V200.683H141.713ZM145.173 204.473H143.958C143.728 204.473 143.561 204.383 143.458 204.203L141.938 201.888C141.881 201.801 141.818 201.739 141.748 201.703C141.681 201.666 141.581 201.648 141.448 201.648H140.873V204.473H139.528V197.243H141.733C142.223 197.243 142.643 197.294 142.993 197.398C143.346 197.498 143.634 197.639 143.858 197.823C144.084 198.006 144.251 198.226 144.358 198.483C144.464 198.736 144.518 199.016 144.518 199.323C144.518 199.566 144.481 199.796 144.408 200.013C144.338 200.229 144.234 200.426 144.098 200.603C143.964 200.779 143.798 200.934 143.598 201.068C143.401 201.201 143.176 201.306 142.923 201.383C143.009 201.433 143.089 201.493 143.163 201.563C143.236 201.629 143.303 201.709 143.363 201.803L145.173 204.473ZM148.731 201.318C148.731 201.158 148.708 201.008 148.661 200.868C148.618 200.724 148.551 200.599 148.461 200.493C148.371 200.386 148.256 200.303 148.116 200.243C147.98 200.179 147.82 200.148 147.636 200.148C147.28 200.148 146.998 200.249 146.791 200.453C146.588 200.656 146.458 200.944 146.401 201.318H148.731ZM146.376 202.063C146.396 202.326 146.443 202.554 146.516 202.748C146.59 202.938 146.686 203.096 146.806 203.223C146.926 203.346 147.068 203.439 147.231 203.503C147.398 203.563 147.581 203.593 147.781 203.593C147.981 203.593 148.153 203.569 148.296 203.523C148.443 203.476 148.57 203.424 148.676 203.368C148.786 203.311 148.881 203.259 148.961 203.213C149.045 203.166 149.125 203.143 149.201 203.143C149.305 203.143 149.381 203.181 149.431 203.258L149.786 203.708C149.65 203.868 149.496 204.003 149.326 204.113C149.156 204.219 148.978 204.306 148.791 204.373C148.608 204.436 148.42 204.481 148.226 204.508C148.036 204.534 147.851 204.548 147.671 204.548C147.315 204.548 146.983 204.489 146.676 204.373C146.37 204.253 146.103 204.078 145.876 203.848C145.65 203.614 145.471 203.328 145.341 202.988C145.211 202.644 145.146 202.248 145.146 201.798C145.146 201.448 145.203 201.119 145.316 200.813C145.43 200.503 145.591 200.234 145.801 200.008C146.015 199.778 146.273 199.596 146.576 199.463C146.883 199.329 147.228 199.263 147.611 199.263C147.935 199.263 148.233 199.314 148.506 199.418C148.78 199.521 149.015 199.673 149.211 199.873C149.408 200.069 149.561 200.313 149.671 200.603C149.785 200.889 149.841 201.218 149.841 201.588C149.841 201.774 149.821 201.901 149.781 201.968C149.741 202.031 149.665 202.063 149.551 202.063H146.376ZM153.898 200.343C153.865 200.396 153.83 200.434 153.793 200.458C153.757 200.478 153.71 200.488 153.653 200.488C153.593 200.488 153.528 200.471 153.458 200.438C153.392 200.404 153.313 200.368 153.223 200.328C153.133 200.284 153.03 200.246 152.913 200.213C152.8 200.179 152.665 200.163 152.508 200.163C152.265 200.163 152.073 200.214 151.933 200.318C151.797 200.421 151.728 200.556 151.728 200.723C151.728 200.833 151.763 200.926 151.833 201.003C151.907 201.076 152.002 201.141 152.118 201.198C152.238 201.254 152.373 201.306 152.523 201.353C152.673 201.396 152.825 201.444 152.978 201.498C153.135 201.551 153.288 201.613 153.438 201.683C153.588 201.749 153.722 201.836 153.838 201.943C153.958 202.046 154.053 202.171 154.123 202.318C154.197 202.464 154.233 202.641 154.233 202.848C154.233 203.094 154.188 203.323 154.098 203.533C154.012 203.739 153.882 203.919 153.708 204.073C153.535 204.223 153.32 204.341 153.063 204.428C152.81 204.511 152.517 204.553 152.183 204.553C152.007 204.553 151.833 204.536 151.663 204.503C151.497 204.473 151.335 204.429 151.178 204.373C151.025 204.316 150.882 204.249 150.748 204.173C150.618 204.096 150.503 204.013 150.403 203.923L150.688 203.453C150.725 203.396 150.768 203.353 150.818 203.323C150.868 203.293 150.932 203.278 151.008 203.278C151.085 203.278 151.157 203.299 151.223 203.343C151.293 203.386 151.373 203.433 151.463 203.483C151.553 203.533 151.658 203.579 151.778 203.623C151.902 203.666 152.057 203.688 152.243 203.688C152.39 203.688 152.515 203.671 152.618 203.638C152.725 203.601 152.812 203.554 152.878 203.498C152.948 203.441 152.998 203.376 153.028 203.303C153.062 203.226 153.078 203.148 153.078 203.068C153.078 202.948 153.042 202.849 152.968 202.773C152.898 202.696 152.803 202.629 152.683 202.573C152.567 202.516 152.432 202.466 152.278 202.423C152.128 202.376 151.973 202.326 151.813 202.273C151.657 202.219 151.502 202.158 151.348 202.088C151.198 202.014 151.063 201.923 150.943 201.813C150.827 201.703 150.732 201.568 150.658 201.408C150.588 201.248 150.553 201.054 150.553 200.828C150.553 200.618 150.595 200.418 150.678 200.228C150.762 200.038 150.883 199.873 151.043 199.733C151.207 199.589 151.408 199.476 151.648 199.393C151.892 199.306 152.172 199.263 152.488 199.263C152.842 199.263 153.163 199.321 153.453 199.438C153.743 199.554 153.985 199.708 154.178 199.898L153.898 200.343ZM159.583 199.343V204.473H158.828C158.664 204.473 158.561 204.398 158.518 204.248L158.433 203.838C158.223 204.051 157.991 204.224 157.738 204.358C157.484 204.488 157.186 204.553 156.843 204.553C156.563 204.553 156.314 204.506 156.098 204.413C155.884 204.316 155.704 204.181 155.558 204.008C155.411 203.834 155.299 203.629 155.223 203.393C155.149 203.153 155.113 202.889 155.113 202.603V199.343H156.348V202.603C156.348 202.916 156.419 203.159 156.563 203.333C156.709 203.503 156.928 203.588 157.218 203.588C157.431 203.588 157.631 203.541 157.818 203.448C158.004 203.351 158.181 203.219 158.348 203.053V199.343H159.583ZM162.057 197.043V204.473H160.822V197.043H162.057ZM164.998 204.553C164.551 204.553 164.208 204.428 163.968 204.178C163.731 203.924 163.613 203.576 163.613 203.133V200.268H163.088C163.021 200.268 162.964 200.246 162.918 200.203C162.871 200.159 162.848 200.094 162.848 200.008V199.518L163.673 199.383L163.933 197.983C163.949 197.916 163.981 197.864 164.028 197.828C164.074 197.791 164.134 197.773 164.208 197.773H164.848V199.388H166.218V200.268H164.848V203.048C164.848 203.208 164.886 203.333 164.963 203.423C165.043 203.513 165.151 203.558 165.288 203.558C165.364 203.558 165.428 203.549 165.478 203.533C165.531 203.513 165.576 203.493 165.613 203.473C165.653 203.453 165.688 203.434 165.718 203.418C165.748 203.398 165.778 203.388 165.808 203.388C165.844 203.388 165.874 203.398 165.898 203.418C165.921 203.434 165.946 203.461 165.973 203.498L166.343 204.098C166.163 204.248 165.956 204.361 165.723 204.438C165.489 204.514 165.248 204.553 164.998 204.553Z" fill="#939090"/>
</svg>
