<svg width="37" height="36" viewBox="0 0 37 36" fill="none" xmlns="http://www.w3.org/2000/svg">
<path d="M0.448242 18C0.448242 8.05888 8.50712 0 18.4482 0C28.3894 0 36.4482 8.05888 36.4482 18C36.4482 27.9411 28.3894 36 18.4482 36C8.50712 36 0.448242 27.9411 0.448242 18Z" fill="#16423C"/>
<path d="M20.8047 15.457C20.751 14.9546 20.5248 14.5634 20.1259 14.2835C19.7309 14.0035 19.2169 13.8635 18.5841 13.8635C18.1392 13.8635 17.7576 13.9306 17.4393 14.0648C17.121 14.1991 16.8775 14.3813 16.7087 14.6114C16.54 14.8415 16.4537 15.1042 16.4498 15.3995C16.4498 15.645 16.5054 15.8578 16.6167 16.0381C16.7317 16.2183 16.887 16.3717 17.0826 16.4983C17.2782 16.621 17.4949 16.7246 17.7327 16.8089C17.9705 16.8933 18.2102 16.9643 18.4518 17.0218L19.5564 17.2979C20.0013 17.4015 20.4289 17.5415 20.8392 17.7179C21.2535 17.8943 21.6236 18.1168 21.9495 18.3852C22.2794 18.6537 22.5402 18.9778 22.7319 19.3575C22.9237 19.7371 23.0196 20.182 23.0196 20.6921C23.0196 21.3825 22.8432 21.9903 22.4903 22.5158C22.1375 23.0374 21.6274 23.4458 20.9601 23.7411C20.2966 24.0326 19.4931 24.1783 18.5496 24.1783C17.633 24.1783 16.8372 24.0364 16.1622 23.7526C15.491 23.4688 14.9656 23.0546 14.5859 22.51C14.2101 21.9654 14.0068 21.3019 13.9761 20.5195H16.0759C16.1066 20.9299 16.2331 21.2712 16.4556 21.5435C16.678 21.8158 16.9676 22.0191 17.3243 22.1533C17.6848 22.2876 18.0875 22.3547 18.5324 22.3547C18.9964 22.3547 19.403 22.2857 19.752 22.1476C20.1048 22.0057 20.3809 21.8101 20.5804 21.5608C20.7798 21.3077 20.8814 21.0124 20.8853 20.6749C20.8814 20.368 20.7913 20.1149 20.6149 19.9155C20.4385 19.7122 20.1911 19.5435 19.8728 19.4092C19.5583 19.2712 19.1901 19.1484 18.7682 19.0411L17.4278 18.6959C16.4575 18.4466 15.6905 18.0688 15.1267 17.5626C14.5667 17.0525 14.2868 16.3756 14.2868 15.5318C14.2868 14.8376 14.4747 14.2298 14.8505 13.7082C15.2302 13.1866 15.7461 12.782 16.3981 12.4943C17.05 12.2028 17.7883 12.0571 18.6129 12.0571C19.449 12.0571 20.1815 12.2028 20.8105 12.4943C21.4433 12.782 21.94 13.1827 22.3005 13.6967C22.661 14.2067 22.847 14.7935 22.8585 15.457H20.8047Z" fill="white"/>
</svg>
