<svg width="20" height="20" viewBox="0 0 20 20" fill="none" xmlns="http://www.w3.org/2000/svg">
<path d="M15.6931 3.22528C15.6981 3.22995 15.7018 3.2358 15.7039 3.24229C15.706 3.24877 15.7064 3.25568 15.7052 3.26238L15.5466 4.16928C15.5233 4.29987 15.5373 4.43438 15.5868 4.55743C15.6364 4.68047 15.7196 4.78708 15.8269 4.86505C15.9343 4.94303 16.0614 4.98922 16.1937 4.99835C16.326 5.00748 16.4583 4.97918 16.5753 4.91668L17.3891 4.48538C17.3951 4.48238 17.4018 4.48084 17.4085 4.48089C17.4153 4.48094 17.4219 4.48258 17.4279 4.48568L18.241 4.91635C18.3581 4.97852 18.4902 5.00658 18.6224 4.99734C18.7546 4.9881 18.8816 4.94192 18.9888 4.86406C19.096 4.78621 19.1792 4.6798 19.229 4.55697C19.2787 4.43413 19.2929 4.2998 19.27 4.16928L19.1112 3.26204C19.1101 3.25545 19.1106 3.24868 19.1127 3.24234C19.1148 3.23599 19.1184 3.23025 19.1232 3.22561L19.7844 2.58531C19.8796 2.49316 19.947 2.37615 19.979 2.24758C20.011 2.11902 20.0062 1.98406 19.9654 1.85805C19.9245 1.73204 19.849 1.62003 19.7476 1.53475C19.6462 1.44948 19.5229 1.39437 19.3918 1.37567L18.4805 1.24644C18.4737 1.24555 18.4673 1.243 18.4618 1.23902C18.4563 1.23504 18.4519 1.22975 18.4489 1.22364L18.0441 0.396673C17.9864 0.277376 17.8961 0.176836 17.7836 0.106651C17.6712 0.0364663 17.5412 -0.000503703 17.4087 6.23481e-06H17.4083C17.2757 -0.000552033 17.1456 0.0363909 17.033 0.106575C16.9205 0.176758 16.8301 0.277324 16.7722 0.396673L16.3676 1.22334C16.3647 1.2294 16.3603 1.23465 16.3548 1.23862C16.3494 1.24259 16.343 1.24517 16.3364 1.24614L15.4249 1.37537C15.2937 1.39401 15.1703 1.44908 15.0689 1.53434C14.9675 1.61959 14.892 1.7316 14.851 1.85762C14.8101 1.98365 14.8054 2.11863 14.8373 2.24722C14.8693 2.37581 14.9367 2.49284 15.0319 2.58501L15.6931 3.22528ZM15.5186 2.03581L16.4304 1.90667C16.5448 1.89033 16.6535 1.84624 16.7469 1.77826C16.8404 1.71029 16.9158 1.62048 16.9666 1.51667L17.3712 0.690007C17.3741 0.6827 17.3793 0.676508 17.386 0.672317C17.3926 0.668125 17.4005 0.66615 17.4083 0.666674C17.4161 0.666106 17.4238 0.668007 17.4304 0.672104C17.437 0.676201 17.4421 0.682283 17.445 0.689474L17.8496 1.51597C17.9003 1.62001 17.9758 1.71002 18.0693 1.77812C18.1629 1.84622 18.2717 1.89032 18.3863 1.90657L19.2975 2.03581C19.3051 2.03686 19.3123 2.04004 19.3182 2.04499C19.3242 2.04993 19.3286 2.05644 19.331 2.06376C19.3334 2.07109 19.3337 2.07895 19.3319 2.08644C19.33 2.09394 19.3261 2.10076 19.3206 2.10614L18.6594 2.74668C18.5764 2.82702 18.5143 2.92647 18.4786 3.03633C18.4429 3.14619 18.4347 3.26313 18.4546 3.37691L18.6131 4.28381C18.6151 4.29144 18.6145 4.29948 18.6116 4.30679C18.6087 4.3141 18.6035 4.32029 18.5969 4.32448C18.5909 4.32959 18.5834 4.33263 18.5755 4.33316C18.5677 4.33369 18.5598 4.33167 18.5532 4.32741L17.7401 3.89668C17.638 3.84237 17.5242 3.81396 17.4086 3.81396C17.293 3.81396 17.1792 3.84237 17.0771 3.89668L16.2633 4.32764C16.2567 4.33187 16.2489 4.33387 16.2411 4.33334C16.2333 4.33281 16.2259 4.32979 16.22 4.32471C16.2133 4.32053 16.2081 4.31433 16.2052 4.30703C16.2023 4.29972 16.2017 4.29167 16.2037 4.28404L16.3622 3.37778C16.3822 3.26382 16.3739 3.14671 16.3382 3.03669C16.3024 2.92666 16.2403 2.82706 16.1571 2.74661L15.4955 2.10614C15.49 2.10075 15.4861 2.09393 15.4843 2.08644C15.4825 2.07896 15.4828 2.07111 15.4852 2.06379C15.4876 2.05647 15.492 2.04997 15.4979 2.04503C15.5038 2.04008 15.511 2.03689 15.5186 2.03581Z" fill="black"/>
<path d="M13.6666 0H0.332855C0.244447 0 0.15966 0.035119 0.0971457 0.0976312C0.0346317 0.160143 -0.000488281 0.244928 -0.000488281 0.333334V5.66667C-0.000484463 5.72506 0.0148541 5.78241 0.0439922 5.83301C0.0731303 5.8836 0.115046 5.92565 0.165544 5.95496C0.216042 5.98426 0.273351 5.99979 0.331736 5.99998C0.390121 6.00018 0.447533 5.98504 0.498227 5.95607L2.75479 4.66667H13.6666C13.755 4.66667 13.8398 4.63155 13.9023 4.56904C13.9648 4.50653 13.9999 4.42174 13.9999 4.33334V0.333334C13.9999 0.244928 13.9648 0.160143 13.9023 0.0976312C13.8398 0.035119 13.755 0 13.6666 0ZM13.3332 4H2.66626C2.60826 4.0001 2.55128 4.01524 2.50089 4.04394L0.666198 5.09214V0.666667H13.3332V4Z" fill="black"/>
<path d="M3.66635 2.66667H10.3332C10.4216 2.66667 10.5064 2.63155 10.5689 2.56904C10.6314 2.50652 10.6666 2.42174 10.6666 2.33333C10.6666 2.24493 10.6314 2.16014 10.5689 2.09763C10.5064 2.03512 10.4216 2 10.3332 2H3.66635C3.57794 2 3.49316 2.03512 3.43064 2.09763C3.36813 2.16014 3.33301 2.24493 3.33301 2.33333C3.33301 2.42174 3.36813 2.50652 3.43064 2.56904C3.49316 2.63155 3.57794 2.66667 3.66635 2.66667Z" fill="black"/>
<path d="M19.3918 8.37567L18.4805 8.24644C18.4737 8.24555 18.4673 8.243 18.4618 8.23902C18.4563 8.23504 18.4519 8.22975 18.4489 8.22364L18.044 7.39697C17.9863 7.27764 17.896 7.17705 17.7836 7.10681C17.6712 7.03658 17.5412 6.99955 17.4087 7.00001H17.4083C17.2757 6.99945 17.1456 7.03639 17.033 7.10657C16.9205 7.17676 16.8301 7.27732 16.7722 7.39667L16.3676 8.22334C16.3647 8.2294 16.3603 8.23465 16.3548 8.23862C16.3494 8.24259 16.343 8.24517 16.3364 8.24614L15.4249 8.37537C15.2937 8.39401 15.1703 8.44908 15.0689 8.53434C14.9675 8.61959 14.892 8.7316 14.851 8.85762C14.8101 8.98365 14.8054 9.11863 14.8373 9.24722C14.8693 9.37581 14.9367 9.49284 15.0319 9.58501L15.6931 10.225C15.6981 10.2297 15.7018 10.2355 15.7039 10.242C15.706 10.2485 15.7064 10.2554 15.7052 10.2621L15.5466 11.169C15.5233 11.2996 15.5372 11.4342 15.5867 11.5573C15.6363 11.6803 15.7195 11.787 15.8268 11.865C15.9341 11.943 16.0612 11.9892 16.1936 11.9984C16.326 12.0075 16.4583 11.9792 16.5753 11.9167L17.3891 11.4854C17.3951 11.4824 17.4018 11.4808 17.4085 11.4809C17.4153 11.4809 17.4219 11.4826 17.4279 11.4857L18.241 11.9163C18.3581 11.9785 18.4902 12.0066 18.6224 11.9973C18.7546 11.9881 18.8816 11.9419 18.9888 11.8641C19.096 11.7862 19.1792 11.6798 19.229 11.557C19.2787 11.4341 19.2929 11.2998 19.27 11.1693L19.1112 10.262C19.1101 10.2554 19.1106 10.2487 19.1127 10.2423C19.1148 10.236 19.1184 10.2302 19.1232 10.2256L19.7844 9.58531C19.8796 9.49316 19.947 9.37615 19.979 9.24758C20.011 9.11902 20.0062 8.98406 19.9654 8.85805C19.9245 8.73204 19.849 8.62003 19.7476 8.53476C19.6462 8.44948 19.5229 8.39437 19.3918 8.37567ZM19.3208 9.10614L18.6594 9.74668C18.5764 9.82702 18.5143 9.92647 18.4786 10.0363C18.4429 10.1462 18.4347 10.2631 18.4546 10.3769L18.6131 11.2838C18.6151 11.2914 18.6145 11.2995 18.6116 11.3068C18.6087 11.3141 18.6035 11.3203 18.5969 11.3245C18.5909 11.3296 18.5834 11.3326 18.5755 11.3332C18.5677 11.3337 18.5598 11.3317 18.5532 11.3274L17.7401 10.8967C17.638 10.8424 17.5242 10.814 17.4086 10.814C17.293 10.814 17.1792 10.8424 17.0771 10.8967L16.2633 11.3276C16.2567 11.3319 16.2489 11.3339 16.2411 11.3333C16.2333 11.3328 16.2259 11.3298 16.22 11.3247C16.2133 11.3205 16.2081 11.3143 16.2052 11.307C16.2023 11.2997 16.2017 11.2917 16.2037 11.284L16.3622 10.3778C16.3822 10.2638 16.3739 10.1467 16.3382 10.0367C16.3024 9.92666 16.2403 9.82706 16.1571 9.74661L15.4957 9.10631C15.4902 9.10092 15.4863 9.09409 15.4845 9.08661C15.4826 9.07912 15.4829 9.07128 15.4853 9.06396C15.4877 9.05664 15.4921 9.05014 15.4981 9.04519C15.504 9.04025 15.5111 9.03706 15.5188 9.03598L16.4304 8.90667C16.5448 8.89033 16.6535 8.84624 16.7469 8.77826C16.8404 8.71029 16.9158 8.62048 16.9666 8.51667L17.3712 7.68984C17.3742 7.68256 17.3794 7.67641 17.386 7.67225C17.3927 7.66809 17.4005 7.66614 17.4083 7.66667C17.4161 7.66611 17.4238 7.66801 17.4304 7.6721C17.437 7.6762 17.4421 7.68228 17.445 7.68947L17.8496 8.51597C17.9003 8.62001 17.9758 8.71002 18.0693 8.77812C18.1629 8.84622 18.2717 8.89032 18.3863 8.90657L19.2975 9.03581C19.3051 9.03686 19.3123 9.04004 19.3182 9.04499C19.3242 9.04993 19.3286 9.05644 19.331 9.06376C19.3334 9.07109 19.3337 9.07895 19.3319 9.08644C19.33 9.09394 19.3263 9.10076 19.3208 9.10614Z" fill="black"/>
<path d="M13.6666 7H0.332855C0.244447 7 0.15966 7.03512 0.0971457 7.09763C0.0346317 7.16014 -0.000488281 7.24493 -0.000488281 7.33333V12.6667C-0.000484463 12.7251 0.0148541 12.7824 0.0439922 12.833C0.0731303 12.8836 0.115046 12.9257 0.165544 12.955C0.216042 12.9843 0.273351 12.9998 0.331736 13C0.390121 13.0002 0.447533 12.985 0.498227 12.9561L2.75479 11.6667H13.6666C13.755 11.6667 13.8398 11.6316 13.9023 11.569C13.9648 11.5065 13.9999 11.4217 13.9999 11.3333V7.33333C13.9999 7.24493 13.9648 7.16014 13.9023 7.09763C13.8398 7.03512 13.755 7 13.6666 7ZM13.3332 11H2.66626C2.60826 11.0001 2.55128 11.0152 2.50089 11.0439L0.666198 12.0921V7.66667H13.3332V11Z" fill="black"/>
<path d="M3.66635 9.66667H10.3332C10.4216 9.66667 10.5064 9.63155 10.5689 9.56904C10.6314 9.50652 10.6666 9.42174 10.6666 9.33333C10.6666 9.24493 10.6314 9.16014 10.5689 9.09763C10.5064 9.03512 10.4216 9 10.3332 9H3.66635C3.57794 9 3.49316 9.03512 3.43064 9.09763C3.36813 9.16014 3.33301 9.24493 3.33301 9.33333C3.33301 9.42174 3.36813 9.50652 3.43064 9.56904C3.49316 9.63155 3.57794 9.66667 3.66635 9.66667Z" fill="black"/>
<path d="M19.3918 15.3757L18.4805 15.2464C18.4737 15.2455 18.4673 15.243 18.4618 15.239C18.4563 15.235 18.4519 15.2298 18.4489 15.2236L18.0441 14.3967C17.9864 14.2774 17.8961 14.1768 17.7836 14.1067C17.6712 14.0365 17.5412 13.9995 17.4087 14H17.4083C17.2757 13.9994 17.1456 14.0364 17.033 14.1066C16.9205 14.1768 16.8301 14.2773 16.7722 14.3967L16.3676 15.2235C16.3647 15.2296 16.3603 15.2348 16.3548 15.2388C16.3494 15.2428 16.343 15.2453 16.3364 15.2463L15.4249 15.3755C15.2937 15.3942 15.1703 15.4492 15.0689 15.5345C14.9675 15.6198 14.892 15.7318 14.851 15.8578C14.8101 15.9838 14.8054 16.1188 14.8373 16.2474C14.8693 16.376 14.9367 16.493 15.0319 16.5852L15.6931 17.2252C15.6981 17.2299 15.7018 17.2357 15.7039 17.2422C15.706 17.2487 15.7064 17.2556 15.7052 17.2623L15.5466 18.1692C15.5233 18.2998 15.5372 18.4343 15.5868 18.5574C15.6364 18.6804 15.7196 18.787 15.8269 18.865C15.9342 18.943 16.0613 18.9892 16.1937 18.9984C16.326 19.0075 16.4583 18.9792 16.5753 18.9167L17.3891 18.4854C17.3951 18.4824 17.4018 18.4808 17.4085 18.4809C17.4153 18.4809 17.4219 18.4826 17.4279 18.4857L18.241 18.9163C18.3581 18.9785 18.4902 19.0066 18.6224 18.9973C18.7546 18.9881 18.8816 18.9419 18.9888 18.8641C19.096 18.7862 19.1792 18.6798 19.229 18.557C19.2787 18.4341 19.2929 18.2998 19.27 18.1693L19.1112 17.262C19.1101 17.2554 19.1106 17.2487 19.1127 17.2423C19.1148 17.236 19.1184 17.2302 19.1232 17.2256L19.7844 16.5853C19.8796 16.4932 19.947 16.3761 19.979 16.2476C20.011 16.119 20.0062 15.9841 19.9654 15.858C19.9245 15.732 19.849 15.62 19.7476 15.5348C19.6462 15.4495 19.5229 15.3944 19.3918 15.3757ZM19.3208 16.1061L18.6594 16.7467C18.5764 16.827 18.5143 16.9265 18.4786 17.0363C18.4429 17.1462 18.4347 17.2631 18.4546 17.3769L18.6131 18.2838C18.6151 18.2914 18.6145 18.2995 18.6116 18.3068C18.6087 18.3141 18.6035 18.3203 18.5969 18.3245C18.5909 18.3296 18.5834 18.3326 18.5755 18.3332C18.5677 18.3337 18.5598 18.3317 18.5532 18.3274L17.7401 17.8967C17.638 17.8424 17.5242 17.814 17.4086 17.814C17.293 17.814 17.1792 17.8424 17.0771 17.8967L16.2633 18.3276C16.2567 18.3319 16.2489 18.3339 16.2411 18.3333C16.2333 18.3328 16.2259 18.3298 16.22 18.3247C16.2133 18.3205 16.2081 18.3143 16.2052 18.307C16.2023 18.2997 16.2017 18.2917 16.2037 18.284L16.3622 17.3778C16.3822 17.2638 16.3739 17.1467 16.3382 17.0367C16.3024 16.9267 16.2403 16.8271 16.1571 16.7466L15.4957 16.1063C15.4902 16.1009 15.4863 16.0941 15.4845 16.0866C15.4826 16.0791 15.4829 16.0713 15.4853 16.064C15.4877 16.0566 15.4921 16.0501 15.4981 16.0452C15.504 16.0402 15.5111 16.0371 15.5188 16.036L16.4304 15.9067C16.5448 15.8903 16.6535 15.8462 16.7469 15.7783C16.8404 15.7103 16.9158 15.6205 16.9666 15.5167L17.3712 14.69C17.3741 14.6827 17.3793 14.6765 17.386 14.6723C17.3926 14.6681 17.4005 14.6662 17.4083 14.6667C17.4161 14.6661 17.4238 14.668 17.4304 14.6721C17.437 14.6762 17.4421 14.6823 17.445 14.6895L17.8496 15.516C17.9003 15.62 17.9758 15.71 18.0693 15.7781C18.1629 15.8462 18.2717 15.8903 18.3863 15.9066L19.2975 16.0358C19.3051 16.0369 19.3123 16.04 19.3182 16.045C19.3242 16.0499 19.3286 16.0564 19.331 16.0638C19.3334 16.0711 19.3337 16.079 19.3319 16.0864C19.33 16.0939 19.3263 16.1008 19.3208 16.1061Z" fill="black"/>
<path d="M13.6666 14H0.332855C0.244447 14 0.15966 14.0351 0.0971457 14.0976C0.0346317 14.1601 -0.000488281 14.2449 -0.000488281 14.3333V19.6667C-0.000484463 19.7251 0.0148541 19.7824 0.0439922 19.833C0.0731303 19.8836 0.115046 19.9257 0.165544 19.955C0.216042 19.9843 0.273351 19.9998 0.331736 20C0.390121 20.0002 0.447533 19.985 0.498227 19.9561L2.75479 18.6667H13.6666C13.755 18.6667 13.8398 18.6316 13.9023 18.569C13.9648 18.5065 13.9999 18.4217 13.9999 18.3333V14.3333C13.9999 14.2449 13.9648 14.1601 13.9023 14.0976C13.8398 14.0351 13.755 14 13.6666 14ZM13.3332 18H2.66626C2.60826 18.0001 2.55128 18.0152 2.50089 18.0439L0.666198 19.0921V14.6667H13.3332V18Z" fill="black"/>
<path d="M3.66635 16.6667H10.3332C10.4216 16.6667 10.5064 16.6315 10.5689 16.569C10.6314 16.5065 10.6666 16.4217 10.6666 16.3333C10.6666 16.2449 10.6314 16.1601 10.5689 16.0976C10.5064 16.0351 10.4216 16 10.3332 16H3.66635C3.57794 16 3.49316 16.0351 3.43064 16.0976C3.36813 16.1601 3.33301 16.2449 3.33301 16.3333C3.33301 16.4217 3.36813 16.5065 3.43064 16.569C3.49316 16.6315 3.57794 16.6667 3.66635 16.6667Z" fill="black"/>
</svg>
