<svg width="24" height="24" viewBox="0 0 24 24" fill="none" xmlns="http://www.w3.org/2000/svg">
<path d="M21 15V19.5C21 19.6989 20.921 19.8896 20.7804 20.0304C20.6396 20.171 20.4489 20.25 20.25 20.25H3.75C3.55106 20.25 3.36035 20.171 3.21964 20.0304C3.07901 19.8896 3 19.6989 3 19.5V15" fill="black" fill-opacity="0.1"/>
<path fill-rule="evenodd" clip-rule="evenodd" d="M2.25 7.5C2.25 7.5 2.25 6.87868 2.68934 6.43934C2.68934 6.43934 3.12868 6 3.75 6H20.25C20.25 6 20.8713 6 21.3107 6.43934C21.3107 6.43934 21.75 6.87868 21.75 7.5V19.5C21.75 19.5 21.75 20.1213 21.3107 20.5607C21.3107 20.5607 20.8713 21 20.25 21H3.75C3.75 21 3.12868 21 2.68934 20.5607C2.68934 20.5607 2.25 20.1213 2.25 19.5V7.5ZM3.75 7.5V19.5H20.25V7.5H3.75Z" fill="black"/>
<path d="M8.15901 3.65901C7.5 4.31802 7.5 5.25 7.5 5.25V6.75C7.5 7.16421 7.83579 7.5 8.25 7.5C8.66421 7.5 9 7.16421 9 6.75V5.25C9 4.93934 9.21967 4.71967 9.21967 4.71967C9.43934 4.5 9.75 4.5 9.75 4.5H14.25C14.5607 4.5 14.7803 4.71967 14.7803 4.71967C15 4.93934 15 5.25 15 5.25V6.75C15 7.16421 15.3358 7.5 15.75 7.5C16.1642 7.5 16.5 7.16421 16.5 6.75V5.25C16.5 4.31802 15.841 3.65901 15.841 3.65901C15.182 3 14.25 3 14.25 3H9.75C8.81802 3 8.15901 3.65901 8.15901 3.65901Z" fill="black"/>
<path d="M3 15.75H21C21.4142 15.75 21.75 15.4142 21.75 15C21.75 14.5858 21.4142 14.25 21 14.25H3C2.58579 14.25 2.25 14.5858 2.25 15C2.25 15.4142 2.58579 15.75 3 15.75Z" fill="black"/>
</svg>
