<svg width="36" height="36" viewBox="0 0 36 36" fill="none" xmlns="http://www.w3.org/2000/svg">
<path d="M24.8191 19.5C25.9441 19.5 26.9341 18.885 27.4441 17.955L32.8141 8.22C33.3691 7.23 32.6491 6 31.5091 6H9.30914L7.89914 3H2.99414V6H5.99414L11.3941 17.385L9.36914 21.045C8.27414 23.055 9.71414 25.5 11.9941 25.5H29.9941V22.5H11.9941L13.6441 19.5H24.8191ZM10.7341 9H28.9591L24.8191 16.5H14.2891L10.7341 9ZM11.9941 27C10.3441 27 9.00914 28.35 9.00914 30C9.00914 31.65 10.3441 33 11.9941 33C13.6441 33 14.9941 31.65 14.9941 30C14.9941 28.35 13.6441 27 11.9941 27ZM26.9941 27C25.3441 27 24.0091 28.35 24.0091 30C24.0091 31.65 25.3441 33 26.9941 33C28.6441 33 29.9941 31.65 29.9941 30C29.9941 28.35 28.6441 27 26.9941 27Z" fill="black"/>
</svg>
