<svg width="32" height="28" viewBox="0 0 32 28" fill="none" xmlns="http://www.w3.org/2000/svg">
<path d="M18.25 0.5C10.795 0.5 4.75 6.545 4.75 14H0.25L6.085 19.835L6.19 20.045L12.25 14H7.75C7.75 8.195 12.445 3.5 18.25 3.5C24.055 3.5 28.75 8.195 28.75 14C28.75 19.805 24.055 24.5 18.25 24.5C15.355 24.5 12.73 23.315 10.84 21.41L8.71 23.54C11.155 25.985 14.515 27.5 18.25 27.5C25.705 27.5 31.75 21.455 31.75 14C31.75 6.545 25.705 0.5 18.25 0.5ZM16.75 8V15.5L23.125 19.28L24.28 17.36L19 14.225V8H16.75Z" fill="black"/>
</svg>
