<svg width="20" height="20" viewBox="0 0 20 20" fill="none" xmlns="http://www.w3.org/2000/svg">
<path d="M3.33341 5.00008H1.66675V16.6667C1.66675 17.5834 2.41675 18.3334 3.33341 18.3334H15.0001V16.6667H3.33341V5.00008ZM16.6667 1.66675H6.66675C5.75008 1.66675 5.00008 2.41675 5.00008 3.33341V13.3334C5.00008 14.2501 5.75008 15.0001 6.66675 15.0001H16.6667C17.5834 15.0001 18.3334 14.2501 18.3334 13.3334V3.33341C18.3334 2.41675 17.5834 1.66675 16.6667 1.66675ZM16.6667 13.3334H6.66675V3.33341H16.6667V13.3334ZM8.33342 7.50008H15.0001V9.16675H8.33342V7.50008ZM8.33342 10.0001H11.6667V11.6667H8.33342V10.0001ZM8.33342 5.00008H15.0001V6.66675H8.33342V5.00008Z" fill="black"/>
</svg>
