<svg width="20" height="20" viewBox="0 0 20 20" fill="none" xmlns="http://www.w3.org/2000/svg">
<path d="M10.0001 1.66663C5.40008 1.66663 1.66675 5.39996 1.66675 9.99996C1.66675 14.6 5.40008 18.3333 10.0001 18.3333C14.6001 18.3333 18.3334 14.6 18.3334 9.99996C18.3334 5.39996 14.6001 1.66663 10.0001 1.66663ZM6.12508 15.4166C7.21675 14.6333 8.55008 14.1666 10.0001 14.1666C11.4501 14.1666 12.7834 14.6333 13.8751 15.4166C12.7834 16.2 11.4501 16.6666 10.0001 16.6666C8.55008 16.6666 7.21675 16.2 6.12508 15.4166ZM15.1167 14.2666C13.7084 13.1666 11.9334 12.5 10.0001 12.5C8.06675 12.5 6.29175 13.1666 4.88341 14.2666C3.91675 13.1083 3.33341 11.625 3.33341 9.99996C3.33341 6.31663 6.31675 3.33329 10.0001 3.33329C13.6834 3.33329 16.6667 6.31663 16.6667 9.99996C16.6667 11.625 16.0834 13.1083 15.1167 14.2666Z" fill="black"/>
<path d="M10.0001 4.99996C8.39175 4.99996 7.08342 6.30829 7.08342 7.91663C7.08342 9.52496 8.39175 10.8333 10.0001 10.8333C11.6084 10.8333 12.9167 9.52496 12.9167 7.91663C12.9167 6.30829 11.6084 4.99996 10.0001 4.99996ZM10.0001 9.16663C9.30841 9.16663 8.75008 8.60829 8.75008 7.91663C8.75008 7.22496 9.30841 6.66663 10.0001 6.66663C10.6917 6.66663 11.2501 7.22496 11.2501 7.91663C11.2501 8.60829 10.6917 9.16663 10.0001 9.16663Z" fill="black"/>
</svg>
